<?xml version="1.0" encoding="UTF-8" standalone="no"?>
<!-- Created with Inkscape (http://www.inkscape.org/) -->

<svg
   xmlns:dc="http://purl.org/dc/elements/1.1/"
   xmlns:cc="http://creativecommons.org/ns#"
   xmlns:rdf="http://www.w3.org/1999/02/22-rdf-syntax-ns#"
   xmlns:svg="http://www.w3.org/2000/svg"
   xmlns="http://www.w3.org/2000/svg"
   xmlns:sodipodi="http://sodipodi.sourceforge.net/DTD/sodipodi-0.dtd"
   xmlns:inkscape="http://www.inkscape.org/namespaces/inkscape"
   height="74.25mm"
   width="105mm"
   viewBox="0 0 372.04724 263.09055"
   id="svg2"
   version="1.1"
   inkscape:version="0.91 r13725"
   sodipodi:docname="library-label.svg">
  <defs
     id="defs8" />
  <sodipodi:namedview
     pagecolor="#ffffff"
     bordercolor="#666666"
     borderopacity="1"
     objecttolerance="10"
     gridtolerance="10"
     guidetolerance="10"
     inkscape:pageopacity="0"
     inkscape:pageshadow="2"
     inkscape:window-width="1366"
     inkscape:window-height="744"
     id="namedview6"
     showgrid="false"
     inkscape:zoom="1"
     inkscape:cx="47.3125"
     inkscape:cy="166.1811"
     inkscape:window-x="0"
     inkscape:window-y="24"
     inkscape:window-maximized="1"
     inkscape:current-layer="svg2"
     showguides="false" />
  <metadata
     id="metadata4">
    <rdf:RDF>
      <cc:Work
         rdf:about="">
        <dc:format>image/svg+xml</dc:format>
        <dc:type
           rdf:resource="http://purl.org/dc/dcmitype/StillImage" />
        <dc:title></dc:title>
      </cc:Work>
    </rdf:RDF>
  </metadata>
  <rect
     style="fill:none;fill-rule:evenodd;stroke:#000000;stroke-width:7.08661417;stroke-linecap:butt;stroke-linejoin:miter;stroke-opacity:1;stroke-miterlimit:4;stroke-dasharray:none"
     id="rect3159"
     width="372.04724"
     height="263.09055"
     x="0.5"
     y="-0.49999449" />
  <text
     xml:space="preserve"
     style="font-style:normal;font-weight:normal;font-size:40px;line-height:125%;font-family:sans-serif;text-align:center;letter-spacing:0px;word-spacing:0px;text-anchor:middle;fill:#000000;fill-opacity:1;stroke:none;stroke-width:1px;stroke-linecap:butt;stroke-linejoin:miter;stroke-opacity:1"
     x="185.258"
     y="252.9859"
     id="text3224"
     sodipodi:linespacing="125%"><tspan
       sodipodi:role="line"
       id="tspan3226"
       x="185.258"
       y="252.9859"
       style="font-style:normal;font-variant:normal;font-weight:normal;font-stretch:normal;font-size:18.75px;font-family:'Ubuntu Mono';-inkscape-font-specification:'Ubuntu Mono';text-align:center;text-anchor:middle">budhajeewa.com</tspan></text>
  <text
     xml:space="preserve"
     style="font-style:normal;font-weight:normal;font-size:40px;line-height:125%;font-family:sans-serif;text-align:center;letter-spacing:0px;word-spacing:0px;text-anchor:middle;fill:#000000;fill-opacity:1;stroke:none;stroke-width:1px;stroke-linecap:butt;stroke-linejoin:miter;stroke-opacity:1"
     x="186.02362"
     y="228.57056"
     id="text3228"
     sodipodi:linespacing="125%"><tspan
       sodipodi:role="line"
       id="tspan3230"
       x="186.02362"
       y="228.57056"
       style="font-style:normal;font-variant:normal;font-weight:normal;font-stretch:normal;font-family:'Ubuntu Mono';-inkscape-font-specification:'Ubuntu Mono';text-align:center;text-anchor:middle">0000000000000000</tspan></text>
  <g
     style="fill:#000000;fill-opacity:1;stroke:none"
     id="g4138"
     transform="matrix(0.34955415,0,0,0.34955415,98.635085,-17.847074)">
    <g
       style="fill:#000000;fill-opacity:1;stroke:none"
       id="layer1"
       transform="translate(0,-552.36216)">
      <path
         inkscape:connector-curvature="0"
         id="path4739"
         d="M 74.96431,629.68692 C 33.8243,664.69347 57.48349,707.2146 57.48349,707.2146 c 0.0871,0.18737 0.21442,0.33288 0.36964,0.44401 -0.98632,5.55256 -1.7988,11.02726 -2.4319,16.41699 -3.65021,-44.18716 -43.68173,-53.05095 -43.68173,-53.05095 0,0 -11.29327,56.11133 42.59763,64.27284 -1.3922,18.69063 -0.68759,36.36232 1.74223,53.03068 C 37.54008,753.59532 0.64383,757.36488 0.64383,757.36488 c 0,0 6.73529,55.34278 58.55935,47.95276 4.12365,18.44266 10.34417,35.57223 18.06906,51.42142 -25.94905,-25.51861 -58.48272,-13.85208 -58.48272,-13.85211 0,0 19.87429,52.22964 68.53035,32.41928 6.49369,10.89602 13.65728,21.11851 21.26501,30.67029 -31.00146,-16.39735 -58.45793,2.60995 -58.45793,2.60995 0,0 32.00654,44.38422 73.26342,14.60039 10.90328,11.79883 22.32308,22.41612 33.67692,31.86484 -32.96944,-11.17034 -57.01545,11.65912 -57.01545,11.65912 0,0 38.83819,39.35868 75.20846,2.61446 15.72497,11.63582 30.66413,21.00512 43.12504,28.21132 -45.13031,-9.1493 -64.39905,28.4773 -64.39905,28.4773 0,0 50.70111,24.7558 72.48359,-23.8929 7.34029,4.1879 17.03259,9.0021 23.53011,12.4682 7.36007,-3.7457 17.41661,-9.0908 23.53013,-12.4682 21.78247,48.6487 72.48359,23.8929 72.48359,23.8929 0,0 -19.26875,-37.6266 -64.39905,-28.4773 12.46091,-7.2062 27.40005,-16.5755 43.12503,-28.21132 36.37026,36.74422 75.20848,-2.61446 75.20848,-2.61446 0,0 -24.04602,-22.82946 -57.01546,-11.65912 11.35384,-9.44872 22.77365,-20.06601 33.67691,-31.86484 41.25688,29.78383 73.26343,-14.60039 73.26343,-14.60039 0,0 -27.45646,-19.0073 -58.45792,-2.60995 7.60772,-9.55178 14.77132,-19.77427 21.265,-30.67029 48.65606,19.81036 68.53035,-32.41928 68.53035,-32.41928 0,2e-5 -32.53367,-11.6665 -58.48272,13.85211 7.72489,-15.84919 13.94542,-32.97876 18.06907,-51.42142 51.82406,7.39002 58.55934,-47.95276 58.55934,-47.95276 0,0 -36.89624,-3.76956 -55.43552,30.96329 2.42981,-16.66836 3.13441,-34.34005 1.74221,-53.03068 53.8909,-8.16151 42.59765,-64.27284 42.59765,-64.27284 0,0 -40.03153,8.86379 -43.68174,53.05095 -0.6331,-5.38973 -1.44558,-10.86443 -2.43189,-16.41699 0.15522,-0.11113 0.2825,-0.25664 0.36962,-0.44401 0,0 23.6592,-42.52113 -17.48081,-77.52768 -26.37638,41.48995 6.74839,76.45674 15.57632,78.152 0.53293,5.06261 0.97683,10.39068 1.26891,15.982 -13.39261,-41.89529 -61.8725,-32.13078 -61.8725,-32.13078 0,0 10.06625,45.48019 62.24213,43.91162 0.17396,15.22523 -0.84846,31.94578 -3.97578,49.64991 -4.92486,-37.02802 -48.1804,-42.29338 -48.1804,-42.29338 0,0 -4.66193,45.63943 44.16857,60.90337 -4.18592,16.38727 -10.28074,33.39925 -18.95484,50.66413 3.47857,-36.57952 -36.70157,-51.86318 -36.70157,-51.86318 0,0 -15.24316,42.49457 27.20614,69.08705 -6.66168,11.09139 -14.44002,22.23194 -23.52561,33.32081 15.24253,-35.59461 -21.15006,-61.84094 -21.15006,-61.84094 0,0 -26.307,37.99235 9.66447,75.05748 -10.81861,11.76666 -23.16464,23.43263 -37.28082,34.87147 20.87785,-32.93814 -11.23991,-64.63347 -11.23991,-64.63347 0,0 -31.56053,33.24181 -2.30568,75.14538 -6.5805,4.88287 -13.49912,9.71709 -20.77368,14.49222 13.26706,-23.39154 -0.5364,-51.6671 -0.5364,-51.6671 0,0 -40.03653,20.49969 -27.47661,68.73549 -6.80812,3.8539 -13.8503,7.6633 -21.18838,11.4134 -7.33808,-3.7501 -14.38026,-7.5595 -21.18838,-11.4134 12.55992,-48.2358 -27.47659,-68.73549 -27.47659,-68.73549 0,0 -13.80347,28.27556 -0.53642,51.6671 -7.27456,-4.77513 -14.19318,-9.60935 -20.77367,-14.49222 29.25485,-41.90357 -2.30568,-75.14538 -2.30568,-75.14538 0,0 -32.11776,31.69533 -11.23991,64.63347 -14.11618,-11.43884 -26.4622,-23.10481 -37.28082,-34.87147 35.97148,-37.06513 9.66448,-75.05748 9.66448,-75.05748 0,0 -36.39261,26.24633 -21.15007,61.84094 -9.08559,-11.08887 -16.86393,-22.22942 -23.5256,-33.32081 42.44929,-26.59248 27.20614,-69.08705 27.20614,-69.08705 0,0 -40.18014,15.28366 -36.70158,51.86318 -8.67408,-17.26488 -14.7689,-34.27686 -18.95482,-50.66413 48.83049,-15.26394 44.16856,-60.90337 44.16856,-60.90337 0,0 -43.25554,5.26536 -48.18039,42.29338 -3.12732,-17.70413 -4.14975,-34.42468 -3.97579,-49.64991 52.17587,1.56857 62.24212,-43.91162 62.24212,-43.91162 0,0 -48.47987,-9.76451 -61.87248,32.13078 0.29207,-5.59132 0.73596,-10.91939 1.2689,-15.982 8.82793,-1.69526 41.95269,-36.66205 15.57632,-78.152 z"
         style="display:inline;fill:#000000;fill-opacity:1;fill-rule:evenodd;stroke:none;stroke-width:0.1;stroke-linecap:butt;stroke-linejoin:miter;stroke-miterlimit:4;stroke-dasharray:none;stroke-opacity:1" />
      <g
         style="fill:#000000;fill-opacity:1;stroke:none"
         id="text4809">
        <path
           inkscape:connector-curvature="0"
           id="path4840"
           style="fill:#000000;fill-opacity:1;stroke:none;stroke-width:0.1;stroke-miterlimit:4;stroke-dasharray:none;stroke-opacity:1"
           d="m 393.25835,660.31848 q -0.48125,-1.575 -1.09375,-3.2375 -0.56875,-1.6625 -1.1375,-3.325 l -11.8125,0 q -0.56875,1.6625 -1.18125,3.325 -0.56875,1.6625 -1.05,3.2375 l -7.0875,0 q 1.70625,-4.9 3.2375,-9.05625 1.53125,-4.15625 2.975,-7.83125 1.4875,-3.675 2.8875,-6.95625 1.44375,-3.325 2.975,-6.475 l 6.51875,0 q 1.4875,3.15 2.93125,6.475 1.44375,3.28125 2.8875,6.95625 1.4875,3.675 3.01875,7.83125 1.53125,4.15625 3.2375,9.05625 l -7.30625,0 z m -8.18125,-23.45 q -0.21875,0.65625 -0.65625,1.79375 -0.4375,1.1375 -1.00625,2.625 -0.56875,1.4875 -1.26875,3.28125 -0.65625,1.79375 -1.35625,3.7625 l 8.61875,0 q -0.7,-1.96875 -1.35625,-3.7625 -0.65625,-1.79375 -1.26875,-3.28125 -0.56875,-1.4875 -1.00625,-2.625 -0.4375,-1.1375 -0.7,-1.79375 z m -31.50889,-3.63125 q 0.525,1.79375 1.1375,4.06875 0.65625,2.23125 1.35625,4.6375 0.74375,2.40625 1.4875,4.8125 0.74375,2.40625 1.44375,4.4625 0.56875,-2.23125 1.1375,-4.85625 0.6125,-2.625 1.1375,-5.425 0.525,-2.8 1.00625,-5.55625 0.525,-2.8 0.9625,-5.38125 l 7.0875,0 q -1.53125,7.6125 -3.54375,15.44375 -1.96875,7.83125 -4.2875,14.875 l -6.25625,0 q -1.53125,-4.2 -2.975,-8.79375 -1.44375,-4.6375 -2.84375,-9.275 -1.4,4.6375 -2.8,9.275 -1.4,4.59375 -2.93125,8.79375 l -6.25625,0 q -2.31875,-7.04375 -4.33125,-14.875 -1.96875,-7.83125 -3.5,-15.44375 l 7.39375,0 q 0.4375,2.58125 0.9625,5.38125 0.525,2.75625 1.09375,5.55625 0.56875,2.8 1.1375,5.425 0.6125,2.625 1.225,4.85625 0.7875,-2.14375 1.53125,-4.55 0.74375,-2.40625 1.44375,-4.8125 0.7,-2.40625 1.26875,-4.6375 0.6125,-2.23125 1.09375,-3.98125 l 5.81875,0 z m -46.833,27.08125 0,-30.31875 20.475,0 0,5.73125 -13.65,0 0,5.95 12.11875,0 0,5.6 -12.11875,0 0,7.30625 14.65625,0 0,5.73125 -21.48125,0 z m -26.48926,0 0,-30.31875 20.475,0 0,5.73125 -13.65,0 0,5.95 12.11875,0 0,5.6 -12.11875,0 0,7.30625 14.65625,0 0,5.73125 -21.48125,0 z m -6.57549,-10.19375 q 0,2.23125 -0.525,4.2 -0.48125,1.96875 -1.75,3.45625 -1.225,1.44375 -3.36875,2.31875 -2.1,0.83125 -5.3375,0.83125 -2.975,0 -5.11875,-0.7 -2.14375,-0.74375 -3.54375,-1.70625 l 2.275,-5.29375 q 1.26875,0.74375 2.7125,1.3125 1.44375,0.56875 3.15,0.56875 2.49375,0 3.5875,-1.225 1.09375,-1.225 1.09375,-4.1125 l 0,-19.775 6.825,0 0,20.125 z m -29.26465,10.19375 q -0.48125,-1.575 -1.09375,-3.2375 -0.56875,-1.6625 -1.1375,-3.325 l -11.8125,0 q -0.56875,1.6625 -1.18125,3.325 -0.56875,1.6625 -1.05,3.2375 l -7.0875,0 q 1.70625,-4.9 3.2375,-9.05625 1.53125,-4.15625 2.975,-7.83125 1.4875,-3.675 2.8875,-6.95625 1.44375,-3.325 2.975,-6.475 l 6.51875,0 q 1.4875,3.15 2.93125,6.475 1.44375,3.28125 2.8875,6.95625 1.4875,3.675 3.01875,7.83125 1.53125,4.15625 3.2375,9.05625 l -7.30625,0 z m -8.18125,-23.45 q -0.21875,0.65625 -0.65625,1.79375 -0.4375,1.1375 -1.00625,2.625 -0.56875,1.4875 -1.26875,3.28125 -0.65625,1.79375 -1.35625,3.7625 l 8.61875,0 q -0.7,-1.96875 -1.35625,-3.7625 -0.65625,-1.79375 -1.26875,-3.28125 -0.56875,-1.4875 -1.00625,-2.625 -0.4375,-1.1375 -0.7,-1.79375 z m -25.96015,-6.86875 6.825,0 0,30.31875 -6.825,0 0,-12.8625 -11.4625,0 0,12.8625 -6.825,0 0,-30.31875 6.825,0 0,11.59375 11.4625,0 0,-11.59375 z m -43.67686,24.7625 q 0.48125,0.0437 1.09375,0.0875 0.65625,0 1.53125,0 5.11875,0 7.56875,-2.58125 2.49375,-2.58125 2.49375,-7.13125 0,-4.76875 -2.3625,-7.21875 -2.3625,-2.45 -7.48125,-2.45 -0.7,0 -1.44375,0.0438 -0.74375,0 -1.4,0.0875 l 0,19.1625 z m 19.73125,-9.625 q 0,3.9375 -1.225,6.86875 -1.225,2.93125 -3.5,4.85625 -2.23125,1.925 -5.46875,2.8875 -3.2375,0.9625 -7.2625,0.9625 -1.8375,0 -4.2875,-0.175 -2.45,-0.13125 -4.8125,-0.6125 l 0,-29.53125 q 2.3625,-0.4375 4.9,-0.56875 2.58125,-0.175 4.41875,-0.175 3.89375,0 7.04375,0.875 3.19375,0.875 5.46875,2.75625 2.275,1.88125 3.5,4.8125 1.225,2.93125 1.225,7.04375 z m -45.63262,15.79375 q -3.19375,0 -5.5125,-0.875 -2.31875,-0.91875 -3.85,-2.49375 -1.4875,-1.61875 -2.23125,-3.80625 -0.7,-2.23125 -0.7,-4.9 l 0,-18.85625 6.825,0 0,18.2875 q 0,1.8375 0.39375,3.15 0.4375,1.26875 1.1375,2.1 0.74375,0.7875 1.75,1.1375 1.05,0.35 2.275,0.35 2.49375,0 4.025,-1.53125 1.575,-1.53125 1.575,-5.20625 l 0,-18.2875 6.825,0 0,18.85625 q 0,2.66875 -0.74375,4.9 -0.74375,2.23125 -2.275,3.85 -1.53125,1.575 -3.89375,2.45 -2.3625,0.875 -5.6,0.875 z m -31.14453,-0.21875 q -2.49375,0 -4.9875,-0.175 -2.45,-0.13125 -5.118748,-0.7 l 0,-29.4 q 2.099998,-0.39375 4.593748,-0.56875 2.49375,-0.21875 4.6375,-0.21875 2.8875,0 5.29375,0.4375 2.45,0.39375 4.2,1.4 1.75,1.00625 2.7125,2.66875 1.00625,1.61875 1.00625,4.025 0,3.63125 -3.5,5.73125 2.8875,1.09375 3.9375,2.975 1.05,1.88125 1.05,4.24375 0,4.76875 -3.5,7.175 -3.45625,2.40625 -10.325,2.40625 z m -3.45625,-13.60625 0,7.83125 q 0.74375,0.0875 1.61875,0.13125 0.875,0.0437 1.925,0.0437 3.0625,0 4.94375,-0.875 1.88125,-0.875 1.88125,-3.2375 0,-2.1 -1.575,-2.975 -1.575,-0.91875 -4.50625,-0.91875 l -4.2875,0 z m 0,-5.20625 3.325,0 q 3.15,0 4.50625,-0.7875 1.35625,-0.83125 1.35625,-2.625 0,-1.8375 -1.4,-2.58125 -1.4,-0.74375 -4.1125,-0.74375 -0.875,0 -1.88125,0.0437 -1.00625,0 -1.79375,0.0875 l 0,6.60625 z" />
      </g>
    </g>
    <path
       inkscape:connector-curvature="0"
       id="path4709"
       d="M 250,128.5493 A 110.07173,110.06888 0 0 0 139.92801,238.61794 110.07173,110.06888 0 0 0 250,348.68825 110.07173,110.06888 0 0 0 360.07199,238.61794 110.07173,110.06888 0 0 0 250,128.5493 Z m 0,15.03188 a 95.037398,95.037398 0 0 1 7.72252,0.35943 l -5.13938,63.00792 A 31.799338,31.799338 0 0 0 250,206.81921 a 31.799338,31.799338 0 0 0 -4.83707,0.39302 l -9.61201,-62.40666 A 95.037398,95.037398 0 0 1 250,143.58118 Z m -24.64557,3.3658 16.39231,60.97401 a 31.799338,31.799338 0 0 0 -20.82293,17.87534 l -57.77449,-25.47526 a 95.037398,95.037398 0 0 1 62.20511,-53.37409 z M 250,215.9408 A 22.678461,22.678461 0 0 1 272.67883,238.61794 22.678461,22.678461 0 0 1 250,261.29676 22.678461,22.678461 0 0 1 227.32117,238.61794 22.678461,22.678461 0 0 1 250,215.9408 Z m 29.07787,35.50042 57.77448,25.47526 a 95.037398,95.037398 0 0 1 -62.2051,53.37409 l -16.39231,-60.97401 a 31.799338,31.799338 0 0 0 20.82293,-17.87534 z m -24.23912,18.58411 9.61201,62.40665 a 95.037398,95.037398 0 0 1 -14.44908,1.22439 95.037398,95.037398 0 0 1 -7.72253,-0.35942 l 5.1394,-63.00793 a 31.799338,31.799338 0 0 0 2.58313,0.12932 31.799338,31.799338 0 0 0 4.83707,-0.39301 z"
       style="opacity:1;fill:#000000;fill-opacity:1;stroke:none;stroke-width:0.1;stroke-miterlimit:4;stroke-dasharray:none;stroke-opacity:1" />
  </g>
  <text
     xml:space="preserve"
     style="font-style:normal;font-weight:normal;font-size:40px;line-height:125%;font-family:sans-serif;letter-spacing:0px;word-spacing:0px;fill:#000000;fill-opacity:1;stroke:none;stroke-width:1px;stroke-linecap:butt;stroke-linejoin:miter;stroke-opacity:1"
     x="99.194244"
     y="187.38527"
     id="text3252"
     sodipodi:linespacing="125%"><tspan
       sodipodi:role="line"
       id="tspan3254"
       x="99.194244"
       y="187.38527"
       style="font-style:normal;font-variant:normal;font-weight:bold;font-stretch:normal;font-family:Ubuntu;-inkscape-font-specification:'Ubuntu Medium'">LIBRARY</tspan></text>
</svg>
